<?xml version="1.0" encoding="utf-8"?>
<svg viewBox="0 0 192 192" xmlns="http://www.w3.org/2000/svg">
  <rect width="192" height="192" style="fill: rgb(187, 238, 204);"/>
  <path d="M 232.387 136.979 L 284.036 209.287 L 183.444 209.287 L 183.444 85.095 L 284.271 85.095 Z M 231.081 136.871 L 281.857 86.095 L 184.444 86.095 L 184.444 208.287 L 282.092 208.287 Z M 189.993 202.738 L 189.993 177.959 L 227.196 140.756 L 271.469 202.738 Z M 227.068 142.298 L 190.993 178.373 L 190.993 201.738 L 269.525 201.738 Z M 79.337 73.351 C 75.23 73.351 71.647 71.886 68.805 69.045 C 65.964 66.203 64.5 62.621 64.5 58.514 C 64.5 54.408 65.962 50.798 68.802 47.898 C 71.643 44.997 75.229 43.5 79.337 43.5 C 83.445 43.5 87.057 44.995 89.957 47.894 C 92.856 50.794 94.351 54.406 94.351 58.514 C 94.351 62.622 92.854 66.207 89.953 69.048 C 87.053 71.888 83.443 73.351 79.337 73.351 Z M 89.253 68.334 C 92.016 65.629 93.351 62.43 93.351 58.514 C 93.351 54.598 92.014 51.366 89.249 48.602 C 86.485 45.837 83.253 44.5 79.337 44.5 C 75.421 44.5 72.221 45.835 69.516 48.598 C 66.81 51.362 65.5 54.596 65.5 58.514 C 65.5 62.431 66.808 65.633 69.513 68.337 C 72.217 71.042 75.42 72.351 79.337 72.351 C 83.255 72.351 86.489 71.04 89.253 68.334 Z M 118.631 73.351 C 114.524 73.351 110.941 71.886 108.099 69.045 C 105.258 66.203 103.794 62.621 103.794 58.514 C 103.794 54.408 105.256 50.798 108.096 47.898 C 110.937 44.997 114.523 43.5 118.631 43.5 C 122.739 43.5 126.351 44.995 129.251 47.894 C 132.15 50.794 133.645 54.406 133.645 58.514 C 133.645 62.622 132.148 66.207 129.247 69.048 C 126.347 71.888 122.737 73.351 118.631 73.351 Z M 128.547 68.334 C 131.31 65.629 132.645 62.43 132.645 58.514 C 132.645 54.598 131.308 51.366 128.543 48.602 C 125.779 45.837 122.547 44.5 118.631 44.5 C 114.715 44.5 111.515 45.835 108.81 48.598 C 106.104 51.362 104.794 54.596 104.794 58.514 C 104.794 62.431 106.102 65.633 108.807 68.337 C 111.511 71.042 114.714 72.351 118.631 72.351 C 122.549 72.351 125.783 71.04 128.547 68.334 Z M 73.047 52.149 C 74.709 50.426 76.881 49.518 79.337 49.518 C 81.793 49.518 83.964 50.426 85.626 52.149 C 87.285 53.869 88.156 56.062 88.156 58.514 C 88.156 60.854 87.25 62.99 85.532 64.709 C 83.813 66.427 81.677 67.333 79.337 67.333 C 76.881 67.333 74.709 66.425 73.047 64.702 C 71.39 62.983 70.518 60.851 70.518 58.514 C 70.518 56.062 71.388 53.869 73.047 52.149 Z M 71.518 58.514 C 71.518 60.661 72.238 62.423 73.767 64.008 C 75.291 65.589 77.073 66.333 79.337 66.333 C 81.481 66.333 83.239 65.587 84.824 64.001 C 86.41 62.416 87.156 60.658 87.156 58.514 C 87.156 56.246 86.433 54.427 84.906 52.843 C 83.382 51.262 81.601 50.518 79.337 50.518 C 77.073 50.518 75.291 51.262 73.767 52.843 C 72.24 54.427 71.518 56.246 71.518 58.514 Z M 112.341 52.149 C 114.003 50.426 116.175 49.518 118.631 49.518 C 121.087 49.518 123.258 50.426 124.92 52.149 C 126.579 53.869 127.45 56.062 127.45 58.514 C 127.45 60.854 126.544 62.99 124.826 64.709 C 123.107 66.427 120.971 67.333 118.631 67.333 C 116.175 67.333 114.003 66.425 112.341 64.702 C 110.684 62.983 109.812 60.851 109.812 58.514 C 109.812 56.062 110.682 53.869 112.341 52.149 Z M 110.812 58.514 C 110.812 60.661 111.532 62.423 113.061 64.008 C 114.585 65.589 116.367 66.333 118.631 66.333 C 120.775 66.333 122.533 65.587 124.118 64.001 C 125.704 62.416 126.45 60.658 126.45 58.514 C 126.45 56.246 125.727 54.427 124.2 52.843 C 122.676 51.262 120.895 50.518 118.631 50.518 C 116.367 50.518 114.585 51.262 113.061 52.843 C 111.534 54.427 110.812 56.246 110.812 58.514 Z" style="fill: none;"/>
  <path d="M 232.387 136.979 L 284.036 209.287 L 183.444 209.287 L 183.444 85.095 L 284.271 85.095 Z M 231.081 136.871 L 281.857 86.095 L 184.444 86.095 L 184.444 208.287 L 282.092 208.287 Z M 189.993 202.738 L 189.993 177.959 L 227.196 140.756 L 271.469 202.738 Z M 227.068 142.298 L 190.993 178.373 L 190.993 201.738 L 269.525 201.738 Z M 79.337 73.351 C 75.23 73.351 71.647 71.886 68.805 69.045 C 65.964 66.203 64.5 62.621 64.5 58.514 C 64.5 54.408 65.962 50.798 68.802 47.898 C 71.643 44.997 75.229 43.5 79.337 43.5 C 83.445 43.5 87.057 44.995 89.957 47.894 C 92.856 50.794 94.351 54.406 94.351 58.514 C 94.351 62.622 92.854 66.207 89.953 69.048 C 87.053 71.888 83.443 73.351 79.337 73.351 Z M 89.253 68.334 C 92.016 65.629 93.351 62.43 93.351 58.514 C 93.351 54.598 92.014 51.366 89.249 48.602 C 86.485 45.837 83.253 44.5 79.337 44.5 C 75.421 44.5 72.221 45.835 69.516 48.598 C 66.81 51.362 65.5 54.596 65.5 58.514 C 65.5 62.431 66.808 65.633 69.513 68.337 C 72.217 71.042 75.42 72.351 79.337 72.351 C 83.255 72.351 86.489 71.04 89.253 68.334 Z M 118.631 73.351 C 114.524 73.351 110.941 71.886 108.099 69.045 C 105.258 66.203 103.794 62.621 103.794 58.514 C 103.794 54.408 105.256 50.798 108.096 47.898 C 110.937 44.997 114.523 43.5 118.631 43.5 C 122.739 43.5 126.351 44.995 129.251 47.894 C 132.15 50.794 133.645 54.406 133.645 58.514 C 133.645 62.622 132.148 66.207 129.247 69.048 C 126.347 71.888 122.737 73.351 118.631 73.351 Z M 128.547 68.334 C 131.31 65.629 132.645 62.43 132.645 58.514 C 132.645 54.598 131.308 51.366 128.543 48.602 C 125.779 45.837 122.547 44.5 118.631 44.5 C 114.715 44.5 111.515 45.835 108.81 48.598 C 106.104 51.362 104.794 54.596 104.794 58.514 C 104.794 62.431 106.102 65.633 108.807 68.337 C 111.511 71.042 114.714 72.351 118.631 72.351 C 122.549 72.351 125.783 71.04 128.547 68.334 Z M 73.047 52.149 C 74.709 50.426 76.881 49.518 79.337 49.518 C 81.793 49.518 83.964 50.426 85.626 52.149 C 87.285 53.869 88.156 56.062 88.156 58.514 C 88.156 60.854 87.25 62.99 85.532 64.709 C 83.813 66.427 81.677 67.333 79.337 67.333 C 76.881 67.333 74.709 66.425 73.047 64.702 C 71.39 62.983 70.518 60.851 70.518 58.514 C 70.518 56.062 71.388 53.869 73.047 52.149 Z M 71.518 58.514 C 71.518 60.661 72.238 62.423 73.767 64.008 C 75.291 65.589 77.073 66.333 79.337 66.333 C 81.481 66.333 83.239 65.587 84.824 64.001 C 86.41 62.416 87.156 60.658 87.156 58.514 C 87.156 56.246 86.433 54.427 84.906 52.843 C 83.382 51.262 81.601 50.518 79.337 50.518 C 77.073 50.518 75.291 51.262 73.767 52.843 C 72.24 54.427 71.518 56.246 71.518 58.514 Z M 112.341 52.149 C 114.003 50.426 116.175 49.518 118.631 49.518 C 121.087 49.518 123.258 50.426 124.92 52.149 C 126.579 53.869 127.45 56.062 127.45 58.514 C 127.45 60.854 126.544 62.99 124.826 64.709 C 123.107 66.427 120.971 67.333 118.631 67.333 C 116.175 67.333 114.003 66.425 112.341 64.702 C 110.684 62.983 109.812 60.851 109.812 58.514 C 109.812 56.062 110.682 53.869 112.341 52.149 Z M 110.812 58.514 C 110.812 60.661 111.532 62.423 113.061 64.008 C 114.585 65.589 116.367 66.333 118.631 66.333 C 120.775 66.333 122.533 65.587 124.118 64.001 C 125.704 62.416 126.45 60.658 126.45 58.514 C 126.45 56.246 125.727 54.427 124.2 52.843 C 122.676 51.262 120.895 50.518 118.631 50.518 C 116.367 50.518 114.585 51.262 113.061 52.843 C 111.534 54.427 110.812 56.246 110.812 58.514 Z" style="fill: none;"/>
  <path d="M 71.582 49.482 C 75.567 49.482 78.966 50.889 81.779 53.701 C 84.592 56.515 85.998 59.914 85.998 63.898 C 85.998 67.883 84.592 71.252 81.779 74.006 C 78.966 76.761 75.567 78.138 71.582 78.138 C 67.597 78.138 64.228 76.761 61.474 74.006 C 58.719 71.252 57.342 67.883 57.342 63.898 C 57.342 59.914 58.719 56.515 61.474 53.701 C 64.228 50.889 67.597 49.482 71.582 49.482 Z M 110.61 78.138 C 106.625 78.138 103.256 76.761 100.501 74.006 C 97.747 71.252 96.37 67.883 96.37 63.898 C 96.37 59.914 97.747 56.515 100.501 53.701 C 103.256 50.889 106.625 49.482 110.61 49.482 C 114.595 49.482 117.993 50.889 120.806 53.701 C 123.619 56.515 125.025 59.914 125.025 63.898 C 125.025 67.883 123.619 71.252 120.806 74.006 C 117.993 76.761 114.595 78.138 110.61 78.138 Z M 71.582 72.16 C 73.926 72.16 75.889 71.34 77.472 69.699 C 79.054 68.059 79.845 66.125 79.845 63.898 C 79.845 61.554 79.054 59.562 77.472 57.921 C 75.889 56.28 73.926 55.459 71.582 55.459 C 69.238 55.459 67.275 56.28 65.693 57.921 C 64.111 59.562 63.32 61.554 63.32 63.898 C 63.32 66.125 64.14 68.059 65.781 69.699 C 67.422 71.34 69.355 72.16 71.582 72.16 Z M 110.61 55.459 C 108.266 55.459 106.303 56.28 104.721 57.921 C 103.138 59.562 102.347 61.554 102.347 63.898 C 102.347 66.125 103.167 68.059 104.808 69.699 C 106.449 71.34 108.383 72.16 110.61 72.16 C 112.954 72.16 114.917 71.34 116.499 69.699 C 118.081 68.059 118.872 66.125 118.872 63.898 C 118.872 61.554 118.081 59.562 116.499 57.921 C 114.917 56.28 112.954 55.459 110.61 55.459 Z M 97.211 138.046 L 148.526 209.887 L 49.435 209.887 L 49.435 86.731 L 148.526 86.731 L 97.211 138.046 Z M 92.61 142.646 L 55.982 179.275 L 55.982 203.34 L 135.963 203.34 L 92.61 142.646 Z M -55.141 73.991 C -59.152 73.991 -62.544 72.604 -65.316 69.832 C -68.088 67.06 -69.474 63.669 -69.474 59.658 C -69.474 55.647 -68.088 52.226 -65.316 49.395 C -62.544 46.564 -59.152 45.148 -55.141 45.148 C -51.13 45.148 -47.709 46.564 -44.878 49.395 C -42.047 52.226 -40.631 55.647 -40.631 59.658 C -40.631 63.669 -42.047 67.06 -44.878 69.832 C -47.709 72.604 -51.13 73.991 -55.141 73.991 Z M -15.859 73.991 C -19.87 73.991 -23.261 72.604 -26.034 69.832 C -28.806 67.06 -30.192 63.669 -30.192 59.658 C -30.192 55.647 -28.806 52.226 -26.034 49.395 C -23.261 46.564 -19.87 45.148 -15.859 45.148 C -11.848 45.148 -8.427 46.564 -5.596 49.395 C -2.765 52.226 -1.349 55.647 -1.349 59.658 C -1.349 63.669 -2.765 67.06 -5.596 69.832 C -8.427 72.604 -11.848 73.991 -15.859 73.991 Z M -63.458 59.658 C -63.458 61.899 -62.662 63.846000000000004 -61.069 65.497 C -59.477 67.149 -57.501 67.974 -55.141 67.974 C -52.9 67.974 -50.953 67.149 -49.302 65.497 C -47.65 63.846000000000004 -46.825 61.899 -46.825 59.658 C -46.825 57.298 -47.621 55.293 -49.214 53.642 C -50.806 51.99 -52.782 51.164 -55.141 51.164 C -57.501 51.164 -59.477 51.99 -61.069 53.642 C -62.662 55.293 -63.458 57.298 -63.458 59.658 Z M -24.175 59.658 C -24.175 61.899 -23.379 63.846000000000004 -21.787 65.497 C -20.194 67.149 -18.218 67.974 -15.859 67.974 C -13.617 67.974 -11.671 67.149 -10.019 65.497 C -8.368 63.846000000000004 -7.542 61.899 -7.542 59.658 C -7.542 57.298 -8.339 55.293 -9.931000000000001 53.642 C -11.524000000000001 51.99 -13.499 51.164 -15.859 51.164 C -18.218 51.164 -20.194 51.99 -21.787 53.642 C -23.379 55.293 -24.175 57.298 -24.175 59.658 Z" style="fill: rgb(255, 51, 200);"/>
</svg>